<svg id="Layer_1" data-name="Layer 1" xmlns="http://www.w3.org/2000/svg" viewBox="0 0 982 154"><defs><style>.cls-1{fill:#fff;}</style></defs><path class="cls-1" d="M150.78,152.22H129c-3.77,0-8-.22-8-4.19,0-1.68.2-2.51,2.73-2.51,2.93,0,6.49-1.46,6.49-10.89V24.6H128.8L83.11,143.86c-2.93,7.94-5,10.47-8.8,10.47-3.57,0-5.25-3.34-7.13-8.38L22.13,24.6H20.45L21.5,133.19c.21,9.84,3.14,12.35,6.29,12.35a2.66,2.66,0,0,1,2.93,2.51c0,4-3.56,4.19-7.76,4.19h-14c-3.34,0-8.17-.22-8.17-4.19,0-1.46.83-2.51,2.93-2.51,3.14,0,6.49-3.14,6.49-12.35l.41-112.57C10.59,11.2,7,9.74,3.89,9.74,2,9.74,1.16,8.91,1.16,7c0-3.34,4.21-4,8.19-4H29.89c5.85,0,8,7.11,8,7.11L79.11,126.69,124.8,7.84C125.63,5.55,128,3,132.56,3h18.22c3.34,0,8.17.22,8.17,4.19,0,1.46-.41,2.51-2.93,2.51-2.73,0-6.29,2.09-6.29,11.3V134.63c0,9.41,3.56,10.89,6.29,10.89,2.52,0,2.93.83,2.93,2.51C159,152,154.12,152.22,150.78,152.22Z" transform="translate(-0.76 -0.96)"/><path class="cls-1" d="M257.83,152.22H244.21c-3.78,0-4.61-3.77-4.61-8.79,0-3.78.42-8.38.42-12.77-12,19.46-24.52,23.65-36.25,23.65-17.18,0-24.3-12.13-24.3-32.85V68.94c0-10.26-2.93-10.47-5.44-10.47a2.8,2.8,0,0,1-3.15-2.93c0-4,5-5,8-5h13.61c4.4,0,4.4,4.61,4.4,10.26v51.68c0,16.11,0,28.67,16.34,28.67C228.07,141.13,240,122.3,240,110v-41c0-8.38-1.88-10.47-5.86-10.47a2.69,2.69,0,0,1-2.93-2.93c0-4,4.83-5,8.17-5H252.8c4.39,0,4.61,5.24,4.61,10.26V135.9c0,6.48,2.31,8.38,4.61,8.38,3.78,0,4,1.26,4,3.14,0,4.18-4.61,4.82-8.17,4.82Z" transform="translate(-0.76 -0.96)"/><path class="cls-1" d="M286.1,18.94c0-9-2.1-10-5.86-10-2.09,0-2.73-1.47-2.73-2.93,0-4,4.61-5,8-5h13.2c4.82,0,4.82,5.65,4.82,9.84V134.24c0,10,2.93,10,5.66,10,2.52,0,2.93,1.68,2.93,2.73,0,4.19-3.78,5.24-7.95,5.24H285.49c-3.35,0-8-1.05-8-5.24a2.57,2.57,0,0,1,2.52-2.73c3.14,0,6.07,0,6.07-10V18.94Z" transform="translate(-0.76 -0.96)"/><path class="cls-1" d="M373.48,60H355v60.67C355,137.16,358,143,375.79,143c2.3,0,3.78,0,3.78,3.78,0,4.81-12.37,5.86-18.44,5.86-12.78,0-23.47-2.72-23.47-26.77V60H328c-3.15,0-4.61-1.27-4.61-3.56,0-2.93,2.93-4.82,5.44-6.07,9.63-5,12.56-9.2,14.25-21.75,1-7.12,1-12.35,6.07-12.35,4.39,0,5.86.83,5.86,6.28V49.71h22.22c1.88,0,3.34.63,3.34,3.14,0,5.43-4.39,7.11-7.12,7.11Z" transform="translate(-0.76 -0.96)"/><path class="cls-1" d="M416.2,152.22H397.34c-3.14,0-7.75-1.05-7.75-5.24a2.48,2.48,0,0,1,2.73-2.72c2.73,0,5.85,0,5.85-10V68.74c0-8.38-1.46-10.26-5.85-10.26-2.1,0-2.73-1.46-2.73-2.92,0-4,4.61-5,7.75-5h13.42c4.19,0,5,3.55,5,7.53,0,3.55-.21,8.79-.21,10.67v65.5c0,10,2.73,10,5.44,10,2.51,0,3.14,1.68,3.14,2.73,0,4.19-3.77,5.24-7.95,5.24ZM404.88,34.42c-5.86,0-11.32-5.44-11.32-11.31s5.45-11.3,11.32-11.3c6.29,0,11.73,5.24,11.73,11.3S411.17,34.42,404.88,34.42Z" transform="translate(-0.76 -0.96)"/><path class="cls-1" d="M577.75,152.22H558.48c-4,0-7.76-1.05-7.76-5.24,0-1,.42-2.72,3.15-2.72,2.51,0,5.66,0,5.66-10V92.37c0-20.09-.42-31.81-15.93-31.81-13.2,0-24.1,14.64-24.1,38.29v35.37c0,10,3.35,10,5.86,10,2.31,0,2.51,1.68,2.51,2.72,0,4.19-4.19,5.24-7.75,5.24H501.48c-4,0-7.76-1.05-7.76-5.24,0-1,.22-2.72,2.51-2.72,2.73,0,5.88,0,5.88-10V92.79c0-21.56-2.73-32.23-14.88-32.23s-25.15,17.37-25.15,38.92v34.74c0,10,2.73,10,5.66,10a2.66,2.66,0,0,1,2.93,2.72c0,4.19-3.56,5.24-7.75,5.24H443.84c-3.14,0-7.76-1.05-7.76-5.24a2.62,2.62,0,0,1,2.74-2.72c2.92,0,5.87,0,5.87-10V68.74c0-9.43-2.31-10.26-5.87-10.26-2.1,0-2.74-1.46-2.74-2.92,0-4,4.62-5,7.76-5h13.61c4.2,0,4.83,4,4.83,9.62,0,3.34-.2,7.12-.2,11.3,5.44-11.08,18-24.26,33.52-24.26C517.19,47.2,518,66,518,71.05c7.54-13,20.54-23.85,33.1-23.85,20.54,0,25.77,13.81,25.77,32.23v54.83c0,10,3.14,10,5.65,10s3.15,1.68,3.15,2.73c0,4.19-5,5.24-8,5.24Z" transform="translate(-0.76 -0.96)"/><path class="cls-1" d="M645.41,155c-30.59,0-48-22-48-54.4,0-36.83,23.05-53.35,47.15-53.35,30.39,0,47.79,19.46,47.79,54S669.3,155,645.42,155Zm-.86-98.76c-18.44,0-28.49,12.55-28.49,41.22S626.55,146,645.41,146s28.27-14.44,28.27-41.63C673.68,74.19,663,56.19,644.55,56.19Z" transform="translate(-0.76 -0.96)"/><path class="cls-1" d="M791.86,135.9c0,6.48,2.3,8.37,4.61,8.37,3.78,0,4,1.27,4,3.15,0,4.18-4.61,4.82-8.17,4.82H778.86c-4.19,0-4.39-6.07-4.39-16.54C767.13,148.05,756.66,155,743.25,155c-18.64,0-39-12.55-39-52.11,0-46.23,27-55.66,43.59-55.66,9.22,0,20.95,2.51,26.61,11.3V18.94c0-9-2.1-10-5.88-10-2.09,0-2.73-1.47-2.73-2.93,0-4,4.62-5,8-5H787c4.82,0,4.82,5.65,4.82,9.84V135.9ZM774.47,83C774.47,63.5,761.91,57,749.74,57,737,57,722.93,66.23,722.93,99.5c0,38.93,16.56,43.94,26.81,43.94,12,0,24.73-10.67,24.73-28.86V83Z" transform="translate(-0.76 -0.96)"/><path class="cls-1" d="M886.34,153.9c-8.38,0-14.66-.83-14.66-13.6v-4.6C864.34,146,854.29,155,836.7,155c-12.15,0-23.88-7.12-23.88-26.36,0-23.22,16.76-27.21,42.74-33.91,7.32-1.88,16.12-5,16.12-10.67V68.74c0-4.61-4-11.94-15.71-11.94-8.48,0-11.17,3.06-14.79,12.32-2.09,4.19-17.9-13.16-14.75-15,3.35-1.68,5.44-2.1,11.32-3.56a93.37,93.37,0,0,1,21-2.51c14.25,0,30.39,3.34,30.39,21.76v64.45c0,7.74,1,10.89,5,10.89a2.43,2.43,0,0,1,2.73,2.72c0,4-5.44,6.07-10.47,6.07ZM871.68,96.56c-2.31,1.88-9.22,4.6-15.51,6.28-15.49,4.39-25.35,7.75-25.35,23.85,0,5.87,1.88,16.1,13.83,16.1,13.42,0,22.84-10,27-19.87Z" transform="translate(-0.76 -0.96)"/><path class="cls-1" d="M916.92,18.94c0-9-2.1-10-5.86-10-2.1,0-2.73-1.47-2.73-2.93,0-4,4.61-5,7.95-5h13.2c4.83,0,4.83,5.65,4.83,9.84V134.24c0,10,2.93,10,5.66,10,2.51,0,2.93,1.68,2.93,2.73,0,4.19-3.78,5.24-8,5.24H916.3c-3.34,0-7.95-1.05-7.95-5.24a2.57,2.57,0,0,1,2.51-2.73c3.15,0,6.07,0,6.07-10V18.94Z" transform="translate(-0.76 -0.96)"/><path class="cls-1" d="M971,152.22c-5.86,0-11.32-5.43-11.32-11.3A11.82,11.82,0,0,1,971,129.62c6.29,0,11.73,5.23,11.73,11.3S977.32,152.22,971,152.22Z" transform="translate(-0.76 -0.96)"/><path class="cls-1" d="M830.61,75.76c-5.86,0-11.32-5.43-11.32-11.3a11.82,11.82,0,0,1,11.32-11.3c6.29,0,11.73,5.23,11.73,11.3S836.9,75.76,830.61,75.76Z" transform="translate(-0.76 -0.96)"/></svg>