<svg width="982" height="154" viewBox="0 0 982 154" fill="none" xmlns="http://www.w3.org/2000/svg">
<g clip-path="url(#clip0_2110_43)">
<path d="M150.02 151.259H128.24C124.47 151.259 120.24 151.039 120.24 147.069C120.24 145.389 120.44 144.559 122.97 144.559C125.9 144.559 129.46 143.099 129.46 133.669V23.6391H128.04L82.3503 142.899C79.4203 150.839 77.3503 153.369 73.5503 153.369C69.9803 153.369 68.3003 150.029 66.4203 144.989L21.3703 23.6391H19.6903L20.7403 132.229C20.9503 142.069 23.8803 144.579 27.0303 144.579C27.3893 144.542 27.7521 144.578 28.0966 144.686C28.4412 144.793 28.7602 144.97 29.0343 145.205C29.3084 145.44 29.5318 145.728 29.691 146.052C29.8502 146.376 29.9418 146.729 29.9603 147.089C29.9603 151.089 26.4003 151.279 22.2003 151.279H8.20027C4.86027 151.279 0.0302734 151.059 0.0302734 147.089C0.0302734 145.629 0.860274 144.579 2.96027 144.579C6.10027 144.579 9.45027 141.439 9.45027 132.229L9.86027 19.6591C9.83027 10.2391 6.24027 8.77906 3.13027 8.77906C1.24027 8.77906 0.400273 7.94906 0.400273 6.03906C0.400273 2.69906 4.61027 2.03906 8.59027 2.03906H29.1303C34.9803 2.03906 37.1303 9.14906 37.1303 9.14906L78.3503 125.729L124.04 6.87906C124.87 4.58906 127.24 2.03906 131.8 2.03906H150.02C153.36 2.03906 158.19 2.25906 158.19 6.22906C158.19 7.68906 157.78 8.73906 155.26 8.73906C152.53 8.73906 148.97 10.8291 148.97 20.0391V133.669C148.97 143.079 152.53 144.559 155.26 144.559C157.78 144.559 158.19 145.389 158.19 147.069C158.24 151.039 153.36 151.259 150.02 151.259Z" fill="black"/>
<path d="M257.07 151.26H243.45C239.67 151.26 238.84 147.49 238.84 142.47C238.84 138.69 239.26 134.09 239.26 129.7C227.26 149.16 214.74 153.35 203.01 153.35C185.83 153.35 178.71 141.22 178.71 120.5V67.9801C178.71 57.7201 175.78 57.5101 173.27 57.5101C172.863 57.562 172.45 57.5238 172.059 57.3981C171.668 57.2724 171.31 57.0623 171.009 56.7828C170.709 56.5032 170.473 56.161 170.32 55.7803C170.166 55.3997 170.098 54.9899 170.12 54.5801C170.12 50.5801 175.12 49.5801 178.12 49.5801H191.73C196.13 49.5801 196.13 54.1901 196.13 59.8401V111.52C196.13 127.63 196.13 140.19 212.47 140.19C227.31 140.17 239.24 121.34 239.24 109.04V68.0401C239.24 59.6601 237.36 57.5701 233.38 57.5701C232.986 57.6071 232.589 57.5568 232.217 57.4226C231.844 57.2885 231.506 57.0738 231.226 56.794C230.947 56.5142 230.732 56.176 230.598 55.8037C230.464 55.4314 230.413 55.0341 230.45 54.6401C230.45 50.6401 235.28 49.6401 238.62 49.6401H252.04C256.43 49.6401 256.65 54.8801 256.65 59.9001V134.94C256.65 141.42 258.96 143.32 261.26 143.32C265.04 143.32 265.26 144.58 265.26 146.46C265.26 150.64 260.65 151.28 257.09 151.28L257.07 151.26Z" fill="black"/>
<path d="M285.34 17.9808C285.34 8.98078 283.24 7.98078 279.48 7.98078C277.39 7.98078 276.75 6.51078 276.75 5.05078C276.75 1.05078 281.36 0.0507812 284.75 0.0507812H297.95C302.77 0.0507812 302.77 5.70078 302.77 9.89078V133.281C302.77 143.281 305.7 143.281 308.43 143.281C310.95 143.281 311.36 144.961 311.36 146.011C311.36 150.201 307.58 151.251 303.41 151.251H284.73C281.38 151.251 276.73 150.201 276.73 146.011C276.708 145.664 276.757 145.317 276.873 144.99C276.989 144.663 277.171 144.362 277.406 144.107C277.642 143.852 277.926 143.647 278.243 143.505C278.56 143.363 278.902 143.287 279.25 143.281C282.39 143.281 285.32 143.281 285.32 133.281V17.9808H285.34Z" fill="black"/>
<path d="M372.72 59.0386H354.24V119.709C354.24 136.199 357.24 142.039 375.03 142.039C377.33 142.039 378.81 142.039 378.81 145.819C378.81 150.629 366.44 151.679 360.37 151.679C347.59 151.679 336.9 148.959 336.9 124.909V59.0386H327.24C324.09 59.0386 322.63 57.7686 322.63 55.4786C322.63 52.5486 325.56 50.6586 328.07 49.4086C337.7 44.4086 340.63 40.2086 342.32 27.6586C343.32 20.5386 343.32 15.3086 348.39 15.3086C352.78 15.3086 354.25 16.1386 354.25 21.5886V48.7486H376.47C378.35 48.7486 379.81 49.3786 379.81 51.8886C379.81 57.3186 375.42 58.9986 372.69 58.9986L372.72 59.0386Z" fill="black"/>
<path d="M415.44 151.262H396.58C393.44 151.262 388.83 150.212 388.83 146.022C388.793 145.654 388.837 145.283 388.961 144.935C389.085 144.587 389.285 144.271 389.547 144.011C389.809 143.75 390.125 143.551 390.473 143.428C390.822 143.306 391.193 143.262 391.56 143.302C394.29 143.302 397.41 143.302 397.41 133.302V67.7816C397.41 59.4016 395.95 57.5216 391.56 57.5216C389.46 57.5216 388.83 56.0616 388.83 54.6016C388.83 50.6016 393.44 49.6016 396.58 49.6016H410C414.19 49.6016 415 53.1516 415 57.1316C415 60.6816 414.79 65.9216 414.79 67.8016V133.302C414.79 143.302 417.52 143.302 420.23 143.302C422.74 143.302 423.37 144.982 423.37 146.032C423.37 150.222 419.6 151.272 415.42 151.272L415.44 151.262ZM404.12 33.4616C398.26 33.4616 392.8 28.0216 392.8 22.1516C392.8 16.2816 398.25 10.8516 404.12 10.8516C410.41 10.8516 415.85 16.0916 415.85 22.1516C415.85 28.2116 410.41 33.4616 404.12 33.4616Z" fill="black"/>
<path d="M576.99 151.26H557.72C553.72 151.26 549.96 150.21 549.96 146.02C549.96 145.02 550.38 143.3 553.11 143.3C555.62 143.3 558.77 143.3 558.77 133.3V91.4102C558.77 71.3202 558.35 59.6002 542.84 59.6002C529.64 59.6002 518.74 74.2402 518.74 97.8902V133.26C518.74 143.26 522.09 143.26 524.6 143.26C526.91 143.26 527.11 144.94 527.11 145.98C527.11 150.17 522.92 151.22 519.36 151.22H500.72C496.72 151.22 492.96 150.17 492.96 145.98C492.96 144.98 493.18 143.26 495.47 143.26C498.2 143.26 501.35 143.26 501.35 133.26V91.8302C501.35 70.2702 498.62 59.6002 486.47 59.6002C474.32 59.6002 461.32 76.9702 461.32 98.5202V133.26C461.32 143.26 464.05 143.26 466.98 143.26C467.357 143.222 467.737 143.264 468.096 143.384C468.455 143.504 468.784 143.699 469.061 143.957C469.338 144.214 469.558 144.528 469.704 144.877C469.851 145.226 469.921 145.602 469.91 145.98C469.91 150.17 466.35 151.22 462.16 151.22H443.08C439.94 151.22 435.32 150.17 435.32 145.98C435.306 145.618 435.367 145.256 435.5 144.918C435.633 144.58 435.835 144.274 436.093 144.018C436.35 143.762 436.658 143.563 436.997 143.432C437.336 143.302 437.698 143.243 438.06 143.26C440.98 143.26 443.93 143.26 443.93 133.26V67.7802C443.93 58.3502 441.62 57.5202 438.06 57.5202C435.96 57.5202 435.32 56.0602 435.32 54.6002C435.32 50.6002 439.94 49.6002 443.08 49.6002H456.69C460.89 49.6002 461.52 53.6002 461.52 59.2202C461.52 62.5602 461.32 66.3402 461.32 70.5202C466.76 59.4402 479.32 46.2602 494.84 46.2602C516.43 46.2402 517.24 65.0402 517.24 70.0902C524.78 57.0902 537.78 46.2402 550.34 46.2402C570.88 46.2402 576.11 60.0502 576.11 78.4702V133.3C576.11 143.3 579.25 143.3 581.76 143.3C584.27 143.3 584.91 144.98 584.91 146.03C584.91 150.22 579.91 151.27 576.91 151.27L576.99 151.26Z" fill="black"/>
<path d="M644.65 154.039C614.06 154.039 596.65 132.039 596.65 99.6391C596.65 62.8091 619.7 46.2891 643.8 46.2891C674.19 46.2891 691.59 65.7491 691.59 100.289C691.59 134.829 668.54 154.039 644.66 154.039H644.65ZM643.79 55.2791C625.35 55.2791 615.3 67.8291 615.3 96.4991C615.3 125.169 625.79 145.039 644.65 145.039C663.51 145.039 672.92 130.599 672.92 103.409C672.92 73.2291 662.24 55.2291 643.79 55.2291V55.2791Z" fill="black"/>
<path d="M791.1 134.941C791.1 141.421 793.4 143.311 795.71 143.311C799.49 143.311 799.71 144.581 799.71 146.461C799.71 150.641 795.1 151.281 791.54 151.281H778.1C773.91 151.281 773.71 145.211 773.71 134.741C766.37 147.091 755.9 154.041 742.49 154.041C723.85 154.041 703.49 141.491 703.49 101.931C703.49 55.7008 730.49 46.2708 747.08 46.2708C756.3 46.2708 768.03 48.7808 773.69 57.5708V17.9808C773.69 8.98078 771.59 7.98078 767.81 7.98078C765.72 7.98078 765.08 6.51078 765.08 5.05078C765.08 1.05078 769.7 0.0507812 773.08 0.0507812H786.24C791.06 0.0507812 791.06 5.70078 791.06 9.89078V134.941H791.1ZM773.71 82.0408C773.71 62.5408 761.15 56.0408 748.98 56.0408C736.24 56.0408 722.17 65.2708 722.17 98.5408C722.17 137.471 738.73 142.481 748.98 142.481C760.98 142.481 773.71 131.811 773.71 113.621V82.0408Z" fill="black"/>
<path d="M885.58 152.94C877.2 152.94 870.92 152.11 870.92 139.34V134.74C863.58 145.04 853.53 154.04 835.94 154.04C823.79 154.04 812.06 146.92 812.06 127.68C812.06 104.46 828.82 100.47 854.8 93.7698C862.12 91.8898 870.92 88.7698 870.92 83.0998V67.7798C870.92 63.1698 866.92 55.8398 855.21 55.8398C846.73 55.8398 844.04 58.8998 840.42 68.1598C838.33 72.3498 822.52 54.9998 825.67 53.1598C829.02 51.4798 831.11 51.0598 836.99 49.5998C843.872 47.9705 850.917 47.1285 857.99 47.0898C872.24 47.0898 888.38 50.4298 888.38 68.8498V133.3C888.38 141.04 889.38 144.19 893.38 144.19C893.749 144.141 894.124 144.177 894.477 144.296C894.83 144.416 895.151 144.614 895.415 144.877C895.679 145.14 895.878 145.46 895.999 145.813C896.119 146.165 896.157 146.54 896.11 146.91C896.11 150.91 890.67 152.98 885.64 152.98L885.58 152.94ZM870.92 95.5998C868.61 97.4798 861.7 100.2 855.41 101.88C839.92 106.27 830.06 109.63 830.06 125.73C830.06 131.6 831.94 141.83 843.89 141.83C857.31 141.83 866.73 131.83 870.89 121.96L870.92 95.5998Z" fill="black"/>
<path d="M916.16 17.9808C916.16 8.98078 914.06 7.98078 910.3 7.98078C908.2 7.98078 907.57 6.51078 907.57 5.05078C907.57 1.05078 912.18 0.0507812 915.52 0.0507812H928.72C933.55 0.0507812 933.55 5.70078 933.55 9.89078V133.281C933.55 143.281 936.48 143.281 939.21 143.281C941.72 143.281 942.14 144.961 942.14 146.011C942.14 150.201 938.36 151.251 934.14 151.251H915.54C912.2 151.251 907.59 150.201 907.59 146.011C907.569 145.665 907.617 145.319 907.733 144.992C907.848 144.666 908.029 144.366 908.263 144.111C908.498 143.856 908.781 143.651 909.097 143.508C909.413 143.366 909.754 143.288 910.1 143.281C913.25 143.281 916.17 143.281 916.17 133.281V17.9808H916.16Z" fill="black"/>
<path d="M970.24 151.26C964.38 151.26 958.92 145.83 958.92 139.96C959.048 137.001 960.282 134.197 962.378 132.105C964.475 130.012 967.28 128.783 970.24 128.66C976.53 128.66 981.97 133.89 981.97 139.96C981.97 146.03 976.56 151.26 970.24 151.26Z" fill="black"/>
<path d="M829.85 74.7992C823.99 74.7992 818.53 69.3692 818.53 63.4992C818.658 60.5399 819.892 57.7364 821.989 55.6437C824.085 53.551 826.891 52.3218 829.85 52.1992C836.14 52.1992 841.58 57.4292 841.58 63.4992C841.58 69.5692 836.14 74.7992 829.85 74.7992Z" fill="black"/>
</g>
<defs>
<clipPath id="clip0_2110_43">
<rect width="982" height="154" fill="white"/>
</clipPath>
</defs>
</svg>
